# xmcd
#
# Track frame offsets:
#   150
#   13406
#   32565
#   46047
#   66279
#   81461
#   93769
#   107927
#   121907
#   135765
#   177118
#   193797
#   205126
#   221514
#   237020
#   256320
#   276133
#   295487
#   312542
#   326257
#
# Disc length: 4676 seconds
#
# Revision: 0
# Processed by: cddbd v1.5PL3 Copyright (c) Steve Scherf et al.
# Submitted via: Media_Universe 3.0
#
DISCID=1e124214
DTITLE=Gary Allen - Alright Guy and It Would Be You
DYEAR=1900
DGENRE=Country
TTITLE0=It Would Be You
TTITLE1=No Man In His Wrong Heart
TTITLE2=I'll Take Today
TTITLE3=I Ain't Running Yet
TTITLE4=She Loves Me She Don't Love You
TTITLE5=Quarter In My Pocket
TTITLE6=Baby I Will
TTITLE7=Red Lips, Blue Eyes, Little White Lies
TTITLE8=It Took Us All Night Long To Say Goodbye
TTITLE9=Forgotten But Not Gone
TTITLE10=No Judgement Day
TTITLE11=Man To Man
TTITLE12=Devil's Candy
TTITLE13=What'd I Say
TTITLE14=Man Of Me
TTITLE15=Adobe Walls
TTITLE16=Alright Guy
TTITLE17=One
TTITLE18=I'm Doin' My Best
TTITLE19=I Don't Look Back/What Would Willie Do
EXTD=
EXTT0=
EXTT1=
EXTT2=
EXTT3=
EXTT4=
EXTT5=
EXTT6=
EXTT7=
EXTT8=
EXTT9=
EXTT10=
EXTT11=
EXTT12=
EXTT13=
EXTT14=
EXTT15=
EXTT16=
EXTT17=
EXTT18=
EXTT19=
PLAYORDER=
